<svg xmlns="http://www.w3.org/2000/svg" viewBox="0 0 150 130"><defs><linearGradient id="fish" x1="18" y1="36" x2="128" y2="88"><stop stop-color="#bfe0e1"/><stop offset=".5" stop-color="#4d8fac"/><stop offset="1" stop-color="#1d5874"/></linearGradient></defs><ellipse cx="72" cy="112" rx="45" ry="9" fill="#163d50" opacity=".15"/><path d="M14 63s26-30 62-30 60 30 60 30-24 29-60 29-62-29-62-29Z" fill="url(#fish)"/><path d="M116 63 151 38v50l-35-25Z" fill="#2c6f88"/><circle cx="49" cy="55" r="5" fill="#0d2f40"/><path d="M76 36c12 12 12 44 0 56M31 79c26 10 62 10 88 0" stroke="#f0f7ee" stroke-width="4" stroke-linecap="round" opacity=".46"/><path d="M25 105c19-9 45-9 70 0" stroke="#2c7190" stroke-width="5" stroke-linecap="round" opacity=".5"/></svg>