<svg xmlns="http://www.w3.org/2000/svg" viewBox="0 0 150 130"><defs><linearGradient id="bowl" x1="35" y1="50" x2="111" y2="116"><stop stop-color="#d78c56"/><stop offset=".55" stop-color="#88441f"/><stop offset="1" stop-color="#4f2916"/></linearGradient><linearGradient id="pestle" x1="84" y1="18" x2="106" y2="70"><stop stop-color="#e6c19a"/><stop offset="1" stop-color="#7d4527"/></linearGradient></defs><ellipse cx="72" cy="113" rx="43" ry="9" fill="#3b2114" opacity=".16"/><path d="M34 70h76l-8 25c-4 13-14 20-30 20s-26-7-30-20l-8-25Z" fill="url(#bowl)"/><path d="M36 70c11 9 62 9 72 0" fill="none" stroke="#f3d0aa" stroke-width="4" opacity=".58"/><path d="M82 56 112 24c5-5 13 2 8 8L91 63Z" fill="url(#pestle)"/><path d="M51 63c5-16 16-25 30-25 8 0 16 4 21 11" fill="none" stroke="#6a381d" stroke-width="5" stroke-linecap="round"/><path d="M43 91c14 7 43 8 59 0" stroke="#f2c392" stroke-width="3" opacity=".44"/><path d="M40 74c-12-10-10-24 4-30 10 13 8 24-4 30ZM111 78c15-8 27-4 33 8-14 5-25 3-33-8Z" fill="#9a7a42" opacity=".42"/></svg>